<svg xmlns="http://www.w3.org/2000/svg" xmlns:xlink="http://www.w3.org/1999/xlink" width="310.632" height="176.959" viewBox="0 0 310.632 176.959">
  <defs>
    <linearGradient id="linear-gradient" x1="0.5" x2="0.5" y2="1" gradientUnits="objectBoundingBox">
      <stop offset="0" stop-color="#3e6296"/>
      <stop offset="1" stop-color="#0c254b"/>
    </linearGradient>
  </defs>
  <g id="그룹_7872" data-name="그룹 7872" transform="translate(0)">
    <path id="패스_102" data-name="패스 102" d="M661.081,219.159v.572H692.74v-.572a4.76,4.76,0,0,0-4.705-4.8H665.786a4.759,4.759,0,0,0-4.7,4.8" transform="translate(-382.124 -61.919)" fill="#1d1d1d"/>
    <path id="패스_103" data-name="패스 103" d="M384.347,228.383l-6.289-8.647h-.569l-6.275,8.647-3.789,5.249-3.776,5.24h-7.082v-2.447l12.975-17.973a9.892,9.892,0,0,1,7.975-4.07h.465A9.9,9.9,0,0,1,386,218.446l12.975,17.974v2.447H391.95l-3.808-5.235Z" transform="translate(-356.567 -61.912)" fill="url(#linear-gradient)"/>
    <path id="패스_111" data-name="패스 111" d="M506.986,290.189l-34.053-46.818h-3.082l-33.979,46.818L415.355,318.61l-20.444,28.373H356.567v-13.25l70.257-97.315a53.562,53.562,0,0,1,43.181-22.036h2.519a53.618,53.618,0,0,1,43.412,22.007l70.257,97.32v13.25h-38.04l-20.62-28.348Z" transform="translate(-314.558 -214.382)" fill="url(#linear-gradient)"/>
    <path id="패스_104" data-name="패스 104" d="M420.437,223.361v15.482h-7.049V218.3a3.944,3.944,0,0,1,6.284-3.153l20.117,14.728V217.912a3.524,3.524,0,0,1,7.048,0v20.959H441.6Z" transform="translate(-360.231 -61.912)" fill="#1d1d1d"/>
    <path id="패스_105" data-name="패스 105" d="M495.877,219.8l-13.315-.023,0,19.1h-6.99V219.759l-13.141.009a5.368,5.368,0,0,1,5.252-5.386h22.936a5.248,5.248,0,0,1,5.261,5.234v.18" transform="translate(-365.07 -61.945)" fill="#1d1d1d"/>
    <path id="패스_106" data-name="패스 106" d="M526.748,238.453a79.441,79.441,0,0,1-16.753-1.7v-5.1a98.588,98.588,0,0,0,16.753,1.7q8.812,0,8.817-1.87t-13.207-2.711c-8.8-.559-13.226-3.175-13.226-7.814s5.267-6.991,15.833-6.991a81.9,81.9,0,0,1,11.268.747,6.2,6.2,0,0,1,5.485,6.056,98.578,98.578,0,0,0-16.753-1.7c-5.875,0-8.817.617-8.817,1.869s4.4,2.152,13.207,2.711,13.226,3.176,13.226,7.814-5.295,6.973-15.862,6.973" transform="translate(-367.575 -61.528)" fill="#1d1d1d"/>
    <path id="패스_107" data-name="패스 107" d="M613.13,226.6v12.226h-6.957V218.993a4.6,4.6,0,0,1,8.333-2.691l10.78,15.209,10.8-15.209a4.557,4.557,0,0,1,6.372-1.118,4.614,4.614,0,0,1,1.943,3.81v19.842h-6.943V226.6l-8.69,12.226h-6.96Z" transform="translate(-376.214 -61.909)" fill="#1d1d1d"/>
    <rect id="사각형_562" data-name="사각형 562" width="31.657" height="5.376" transform="translate(278.975 171.571)" fill="#1d1d1d"/>
    <rect id="사각형_563" data-name="사각형 563" width="31.657" height="5.376" transform="translate(278.975 162.094)" fill="#1d1d1d"/>
    <path id="패스_108" data-name="패스 108" d="M583.567,222.47q0-3.393-8.807-3.4H573q-8.808,0-8.807,3.4v7.48q0,3.393,8.807,3.4h1.761q8.808,0,8.807-3.4Zm-8.807-8.5q15.835,0,15.844,8.5v7.48q0,8.505-15.844,8.5H573q-15.863,0-15.844-8.5v-7.48q0-8.505,15.844-8.5Z" transform="translate(-371.395 -61.508)" fill="#1d1d1d"/>
  </g>
</svg>
